<svg width="20" height="20" viewBox="0 0 20 20" fill="none" xmlns="http://www.w3.org/2000/svg">
<path d="M14.541 18.9584C13.5993 18.9584 12.6077 18.7334 11.5827 18.3C10.5827 17.875 9.57435 17.2917 8.59102 16.5834C7.61602 15.8667 6.67435 15.0667 5.78268 14.1917C4.89935 13.3 4.09935 12.3584 3.39102 11.3917C2.67435 10.3917 2.09935 9.39169 1.69102 8.42502C1.25768 7.39169 1.04102 6.39169 1.04102 5.45002C1.04102 4.80002 1.15768 4.18335 1.38268 3.60835C1.61602 3.01669 1.99102 2.46669 2.49935 1.99169C3.14102 1.35835 3.87435 1.04169 4.65768 1.04169C4.98268 1.04169 5.31602 1.11669 5.59935 1.25002C5.92435 1.40002 6.19935 1.62502 6.39935 1.92502L8.33268 4.65002C8.50768 4.89169 8.64102 5.12502 8.73268 5.35835C8.84102 5.60835 8.89935 5.85835 8.89935 6.10002C8.89935 6.41669 8.80768 6.72502 8.63268 7.01669C8.50768 7.24169 8.31602 7.48335 8.07435 7.72502L7.50768 8.31669C7.51602 8.34169 7.52435 8.35835 7.53268 8.37502C7.63268 8.55002 7.83268 8.85002 8.21602 9.30002C8.62435 9.76669 9.00768 10.1917 9.39102 10.5834C9.88268 11.0667 10.291 11.45 10.6743 11.7667C11.1494 12.1667 11.4577 12.3667 11.641 12.4584L11.6243 12.5L12.2327 11.9C12.491 11.6417 12.741 11.45 12.9827 11.325C13.441 11.0417 14.0244 10.9917 14.6077 11.2334C14.8244 11.325 15.0577 11.45 15.3077 11.625L18.0744 13.5917C18.3827 13.8 18.6077 14.0667 18.741 14.3834C18.866 14.7 18.9243 14.9917 18.9243 15.2834C18.9243 15.6834 18.8327 16.0834 18.6577 16.4584C18.4827 16.8334 18.266 17.1584 17.991 17.4584C17.516 17.9834 16.9993 18.3584 16.3994 18.6C15.8244 18.8334 15.1994 18.9584 14.541 18.9584ZM4.65768 2.29169C4.19935 2.29169 3.77435 2.49169 3.36602 2.89169C2.98268 3.25002 2.71602 3.64169 2.54935 4.06669C2.37435 4.50002 2.29102 4.95835 2.29102 5.45002C2.29102 6.22502 2.47435 7.06669 2.84102 7.93335C3.21602 8.81669 3.74102 9.73335 4.40768 10.65C5.07435 11.5667 5.83268 12.4584 6.66602 13.3C7.49935 14.125 8.39935 14.8917 9.32435 15.5667C10.2243 16.225 11.1493 16.7584 12.066 17.1417C13.491 17.75 14.8244 17.8917 15.9243 17.4334C16.3493 17.2584 16.7243 16.9917 17.066 16.6084C17.2577 16.4 17.4077 16.175 17.5327 15.9084C17.6327 15.7 17.6827 15.4834 17.6827 15.2667C17.6827 15.1334 17.6577 15 17.591 14.85C17.566 14.8 17.516 14.7084 17.3577 14.6L14.591 12.6334C14.4243 12.5167 14.2743 12.4334 14.1327 12.375C13.9493 12.3 13.8743 12.225 13.591 12.4C13.4243 12.4834 13.2743 12.6084 13.1077 12.775L12.4743 13.4C12.1494 13.7167 11.6494 13.7917 11.266 13.65L11.041 13.55C10.6993 13.3667 10.2993 13.0834 9.85768 12.7084C9.45768 12.3667 9.02435 11.9667 8.49935 11.45C8.09102 11.0334 7.68268 10.5917 7.25768 10.1C6.86602 9.64169 6.58268 9.25002 6.40768 8.92502L6.30768 8.67502C6.25768 8.48335 6.24102 8.37502 6.24102 8.25835C6.24102 7.95835 6.34935 7.69169 6.55768 7.48335L7.18268 6.83335C7.34935 6.66669 7.47435 6.50835 7.55768 6.36669C7.62435 6.25835 7.64935 6.16669 7.64935 6.08335C7.64935 6.01669 7.62435 5.91669 7.58268 5.81669C7.52435 5.68335 7.43268 5.53335 7.31602 5.37502L5.38268 2.64169C5.29935 2.52502 5.19935 2.44169 5.07435 2.38335C4.94102 2.32502 4.79935 2.29169 4.65768 2.29169ZM11.6243 12.5084L11.491 13.075L11.716 12.4917C11.6743 12.4834 11.641 12.4917 11.6243 12.5084Z" fill="white"/>
<path d="M15.4167 8.12498C15.075 8.12498 14.7917 7.84165 14.7917 7.49998C14.7917 7.19998 14.4917 6.57498 13.9917 6.04165C13.5 5.51665 12.9583 5.20831 12.5 5.20831C12.1583 5.20831 11.875 4.92498 11.875 4.58331C11.875 4.24165 12.1583 3.95831 12.5 3.95831C13.3083 3.95831 14.1583 4.39165 14.9 5.18331C15.5917 5.92498 16.0417 6.83331 16.0417 7.49998C16.0417 7.84165 15.7583 8.12498 15.4167 8.12498Z" fill="white"/>
<path d="M18.3333 8.12502C17.9917 8.12502 17.7083 7.84169 17.7083 7.50002C17.7083 4.62502 15.375 2.29169 12.5 2.29169C12.1583 2.29169 11.875 2.00835 11.875 1.66669C11.875 1.32502 12.1583 1.04169 12.5 1.04169C16.0583 1.04169 18.9583 3.94169 18.9583 7.50002C18.9583 7.84169 18.675 8.12502 18.3333 8.12502Z" fill="white"/>
</svg>
