<svg width="44" height="44" viewBox="0 0 44 44" fill="none" xmlns="http://www.w3.org/2000/svg">
<g filter="url(#filter0_d_418_787)">
<path d="M24.0007 29.1663H20.0007C16.3807 29.1663 14.834 27.6197 14.834 23.9997V19.9997C14.834 16.3797 16.3807 14.833 20.0007 14.833H24.0007C27.6207 14.833 29.1673 16.3797 29.1673 19.9997V23.9997C29.1673 27.6197 27.6207 29.1663 24.0007 29.1663ZM20.0007 15.833C16.9273 15.833 15.834 16.9263 15.834 19.9997V23.9997C15.834 27.073 16.9273 28.1663 20.0007 28.1663H24.0007C27.074 28.1663 28.1673 27.073 28.1673 23.9997V19.9997C28.1673 16.9263 27.074 15.833 24.0007 15.833H20.0007Z" fill="#636161"/>
<path d="M21.9993 24.8337C20.4393 24.8337 19.166 23.5603 19.166 22.0003C19.166 20.4403 20.4393 19.167 21.9993 19.167C23.5593 19.167 24.8327 20.4403 24.8327 22.0003C24.8327 23.5603 23.5593 24.8337 21.9993 24.8337ZM21.9993 20.167C20.986 20.167 20.166 20.987 20.166 22.0003C20.166 23.0137 20.986 23.8337 21.9993 23.8337C23.0127 23.8337 23.8327 23.0137 23.8327 22.0003C23.8327 20.987 23.0127 20.167 21.9993 20.167Z" fill="#636161"/>
<path d="M25.3327 18.9999C25.246 18.9999 25.1593 18.9799 25.0793 18.9466C24.9993 18.9133 24.926 18.8666 24.8593 18.8066C24.7993 18.7399 24.746 18.6666 24.7127 18.5866C24.6793 18.5066 24.666 18.4199 24.666 18.3333C24.666 18.2466 24.6793 18.1599 24.7127 18.0799C24.7527 17.9933 24.7993 17.9266 24.8593 17.8599C24.8927 17.8333 24.926 17.7999 24.9593 17.7799C24.9993 17.7533 25.0393 17.7333 25.0793 17.7199C25.1193 17.6999 25.1593 17.6866 25.206 17.6799C25.4193 17.6333 25.646 17.7066 25.806 17.8599C25.866 17.9266 25.9127 17.9933 25.946 18.0799C25.9793 18.1599 25.9993 18.2466 25.9993 18.3333C25.9993 18.4199 25.9793 18.5066 25.946 18.5866C25.9127 18.6666 25.866 18.7399 25.806 18.8066C25.7393 18.8666 25.666 18.9133 25.586 18.9466C25.506 18.9799 25.4193 18.9999 25.3327 18.9999Z" fill="#636161"/>
</g>
<defs>
<filter id="filter0_d_418_787" x="0" y="0" width="44" height="44" filterUnits="userSpaceOnUse" color-interpolation-filters="sRGB">
<feFlood flood-opacity="0" result="BackgroundImageFix"/>
<feColorMatrix in="SourceAlpha" type="matrix" values="0 0 0 0 0 0 0 0 0 0 0 0 0 0 0 0 0 0 127 0" result="hardAlpha"/>
<feOffset/>
<feGaussianBlur stdDeviation="7"/>
<feComposite in2="hardAlpha" operator="out"/>
<feColorMatrix type="matrix" values="0 0 0 0 0 0 0 0 0 0 0 0 0 0 0 0 0 0 0.1 0"/>
<feBlend mode="normal" in2="BackgroundImageFix" result="effect1_dropShadow_418_787"/>
<feBlend mode="normal" in="SourceGraphic" in2="effect1_dropShadow_418_787" result="shape"/>
</filter>
</defs>
</svg>
