<svg width="28" height="28" viewBox="0 0 28 28" fill="none" xmlns="http://www.w3.org/2000/svg">
<path d="M24.7699 9.33333H3.23142C2.74082 9.33333 2.33398 8.80444 2.33398 8.16667C2.33398 7.52889 2.74082 7 3.23142 7H24.7699C25.2605 7 25.6673 7.52889 25.6673 8.16667C25.6673 8.80444 25.2605 9.33333 24.7699 9.33333Z" fill="#393737"/>
<path d="M25.1276 15.1666H12.2045C11.9101 15.1666 11.666 14.6378 11.666 14C11.666 13.3622 11.9101 12.8333 12.2045 12.8333H25.1276C25.4219 12.8333 25.666 13.3622 25.666 14C25.666 14.6378 25.4219 15.1666 25.1276 15.1666Z" fill="#393737"/>
<path d="M25.2622 21H15.5699C15.3491 21 15.166 20.4711 15.166 19.8334C15.166 19.1956 15.3491 18.6667 15.5699 18.6667H25.2622C25.4829 18.6667 25.666 19.1956 25.666 19.8334C25.666 20.4711 25.4829 21 25.2622 21Z" fill="#393737"/>
</svg>
