<svg width="995" height="686" viewBox="0 0 995 686" fill="none" xmlns="http://www.w3.org/2000/svg">
<line x1="94.5" y1="2.18557e-08" x2="94.5" y2="686" stroke="url(#paint0_linear_1095_1899)"/>
<line x1="194.5" y1="2.18557e-08" x2="194.5" y2="686" stroke="url(#paint1_linear_1095_1899)"/>
<line x1="294.5" y1="2.18557e-08" x2="294.5" y2="686" stroke="url(#paint2_linear_1095_1899)"/>
<line x1="394.5" y1="2.18557e-08" x2="394.5" y2="686" stroke="url(#paint3_linear_1095_1899)"/>
<line x1="494.5" y1="2.18557e-08" x2="494.5" y2="686" stroke="url(#paint4_linear_1095_1899)"/>
<line x1="594.5" y1="2.18557e-08" x2="594.5" y2="686" stroke="url(#paint5_linear_1095_1899)"/>
<line x1="694.5" y1="2.18557e-08" x2="694.5" y2="686" stroke="url(#paint6_linear_1095_1899)"/>
<line x1="794.5" y1="2.18557e-08" x2="794.5" y2="686" stroke="url(#paint7_linear_1095_1899)"/>
<line x1="894.5" y1="2.18557e-08" x2="894.5" y2="686" stroke="url(#paint8_linear_1095_1899)"/>
<line x1="994.5" y1="2.18557e-08" x2="994.5" y2="686" stroke="url(#paint9_linear_1095_1899)"/>
<line x1="994" y1="70.1447" x2="-6" y2="70.1447" stroke="url(#paint10_linear_1095_1899)"/>
<line x1="994" y1="157.2" x2="-6" y2="157.2" stroke="url(#paint11_linear_1095_1899)"/>
<line x1="994" y1="244.256" x2="-6" y2="244.256" stroke="url(#paint12_linear_1095_1899)"/>
<line x1="994" y1="331.312" x2="-6" y2="331.312" stroke="url(#paint13_linear_1095_1899)"/>
<line x1="994" y1="418.368" x2="-6" y2="418.368" stroke="url(#paint14_linear_1095_1899)"/>
<line x1="994" y1="505.424" x2="-6" y2="505.424" stroke="url(#paint15_linear_1095_1899)"/>
<line x1="994" y1="592.48" x2="-6" y2="592.48" stroke="url(#paint16_linear_1095_1899)"/>
<defs>
<linearGradient id="paint0_linear_1095_1899" x1="93.5" y1="-2.18557e-08" x2="93.5" y2="686" gradientUnits="userSpaceOnUse">
<stop stop-color="#DADADA" stop-opacity="0.05"/>
<stop offset="1" stop-color="#747474" stop-opacity="0.1"/>
</linearGradient>
<linearGradient id="paint1_linear_1095_1899" x1="193.5" y1="-2.18557e-08" x2="193.5" y2="686" gradientUnits="userSpaceOnUse">
<stop stop-color="#DADADA" stop-opacity="0.05"/>
<stop offset="1" stop-color="#747474" stop-opacity="0.1"/>
</linearGradient>
<linearGradient id="paint2_linear_1095_1899" x1="293.5" y1="-2.18557e-08" x2="293.5" y2="686" gradientUnits="userSpaceOnUse">
<stop stop-color="#DADADA" stop-opacity="0.05"/>
<stop offset="1" stop-color="#747474" stop-opacity="0.1"/>
</linearGradient>
<linearGradient id="paint3_linear_1095_1899" x1="393.5" y1="-2.18557e-08" x2="393.5" y2="686" gradientUnits="userSpaceOnUse">
<stop stop-color="#DADADA" stop-opacity="0.05"/>
<stop offset="1" stop-color="#747474" stop-opacity="0.1"/>
</linearGradient>
<linearGradient id="paint4_linear_1095_1899" x1="493.5" y1="-2.18557e-08" x2="493.5" y2="686" gradientUnits="userSpaceOnUse">
<stop stop-color="#DADADA" stop-opacity="0.05"/>
<stop offset="1" stop-color="#747474" stop-opacity="0.1"/>
</linearGradient>
<linearGradient id="paint5_linear_1095_1899" x1="593.5" y1="-2.18557e-08" x2="593.5" y2="686" gradientUnits="userSpaceOnUse">
<stop stop-color="#DADADA" stop-opacity="0.05"/>
<stop offset="1" stop-color="#747474" stop-opacity="0.1"/>
</linearGradient>
<linearGradient id="paint6_linear_1095_1899" x1="693.5" y1="-2.18557e-08" x2="693.5" y2="686" gradientUnits="userSpaceOnUse">
<stop stop-color="#DADADA" stop-opacity="0.05"/>
<stop offset="1" stop-color="#747474" stop-opacity="0.1"/>
</linearGradient>
<linearGradient id="paint7_linear_1095_1899" x1="793.5" y1="-2.18557e-08" x2="793.5" y2="686" gradientUnits="userSpaceOnUse">
<stop stop-color="#DADADA" stop-opacity="0.05"/>
<stop offset="1" stop-color="#747474" stop-opacity="0.1"/>
</linearGradient>
<linearGradient id="paint8_linear_1095_1899" x1="893.5" y1="-2.18557e-08" x2="893.5" y2="686" gradientUnits="userSpaceOnUse">
<stop stop-color="#DADADA" stop-opacity="0.05"/>
<stop offset="1" stop-color="#747474" stop-opacity="0.1"/>
</linearGradient>
<linearGradient id="paint9_linear_1095_1899" x1="993.5" y1="-2.18557e-08" x2="993.5" y2="686" gradientUnits="userSpaceOnUse">
<stop stop-color="#DADADA" stop-opacity="0.05"/>
<stop offset="1" stop-color="#747474" stop-opacity="0.1"/>
</linearGradient>
<linearGradient id="paint10_linear_1095_1899" x1="994" y1="69.1447" x2="-6" y2="69.1447" gradientUnits="userSpaceOnUse">
<stop stop-color="#DADADA" stop-opacity="0.05"/>
<stop offset="1" stop-color="#747474" stop-opacity="0.1"/>
</linearGradient>
<linearGradient id="paint11_linear_1095_1899" x1="994" y1="156.2" x2="-6" y2="156.2" gradientUnits="userSpaceOnUse">
<stop stop-color="#DADADA" stop-opacity="0.05"/>
<stop offset="1" stop-color="#747474" stop-opacity="0.1"/>
</linearGradient>
<linearGradient id="paint12_linear_1095_1899" x1="994" y1="243.256" x2="-6" y2="243.256" gradientUnits="userSpaceOnUse">
<stop stop-color="#DADADA" stop-opacity="0.05"/>
<stop offset="1" stop-color="#747474" stop-opacity="0.1"/>
</linearGradient>
<linearGradient id="paint13_linear_1095_1899" x1="994" y1="330.312" x2="-6" y2="330.312" gradientUnits="userSpaceOnUse">
<stop stop-color="#DADADA" stop-opacity="0.05"/>
<stop offset="1" stop-color="#747474" stop-opacity="0.1"/>
</linearGradient>
<linearGradient id="paint14_linear_1095_1899" x1="994" y1="417.368" x2="-6" y2="417.368" gradientUnits="userSpaceOnUse">
<stop stop-color="#DADADA" stop-opacity="0.05"/>
<stop offset="1" stop-color="#747474" stop-opacity="0.1"/>
</linearGradient>
<linearGradient id="paint15_linear_1095_1899" x1="994" y1="504.424" x2="-6" y2="504.424" gradientUnits="userSpaceOnUse">
<stop stop-color="#DADADA" stop-opacity="0.05"/>
<stop offset="1" stop-color="#747474" stop-opacity="0.1"/>
</linearGradient>
<linearGradient id="paint16_linear_1095_1899" x1="994" y1="591.48" x2="-6" y2="591.48" gradientUnits="userSpaceOnUse">
<stop stop-color="#DADADA" stop-opacity="0.05"/>
<stop offset="1" stop-color="#747474" stop-opacity="0.1"/>
</linearGradient>
</defs>
</svg>
