<svg width="16" height="16" viewBox="0 0 16 16" fill="none" xmlns="http://www.w3.org/2000/svg">
<path d="M1.33343 15.1667C1.20009 15.1667 1.07341 15.1133 0.980073 15.02C0.853406 14.8933 0.800105 14.7067 0.846772 14.5333L1.68678 11.3933C1.12678 10.3533 0.833426 9.17999 0.833426 7.99333C0.833426 4.03999 4.04676 0.82666 8.00009 0.82666C11.9534 0.82666 15.1668 4.03999 15.1668 7.99333C15.1668 11.9467 11.9534 15.16 8.00009 15.16C6.79343 15.16 5.61344 14.86 4.56011 14.2867L1.46677 15.1467C1.4201 15.16 1.38009 15.1667 1.33343 15.1667ZM4.62676 13.2533C4.71343 13.2533 4.8001 13.28 4.8801 13.32C5.8201 13.8733 6.90009 14.1667 8.00009 14.1667C11.4001 14.1667 14.1668 11.4 14.1668 8C14.1668 4.6 11.4001 1.83333 8.00009 1.83333C4.60009 1.83333 1.83343 4.6 1.83343 8C1.83343 9.08667 2.12009 10.1467 2.66009 11.08C2.72675 11.1933 2.74676 11.3333 2.71343 11.46L2.04676 13.9533L4.50009 13.2733C4.54009 13.26 4.58676 13.2533 4.62676 13.2533Z" fill="#636161"/>
<path d="M9.82682 11.84C9.41349 11.84 8.98683 11.7467 8.54016 11.5534C8.12016 11.3734 7.70016 11.1334 7.2935 10.8334C6.8935 10.54 6.50018 10.2067 6.14018 9.84669C5.78018 9.48002 5.44682 9.09337 5.15348 8.69337C4.85348 8.27337 4.61348 7.86002 4.44014 7.45336C4.25348 7.01336 4.16016 6.58003 4.16016 6.16669C4.16016 5.87336 4.21348 5.59336 4.31348 5.33336C4.42014 5.06003 4.59348 4.81336 4.82015 4.60002C5.24682 4.18002 5.86018 4.0267 6.34684 4.26004C6.51351 4.33337 6.65351 4.45337 6.76017 4.61337L7.53349 5.70002C7.61349 5.80669 7.67351 5.92002 7.72017 6.03335C7.77351 6.16669 7.80684 6.30004 7.80684 6.4267C7.80684 6.60004 7.76016 6.77337 7.66683 6.9267C7.60683 7.0267 7.52015 7.1467 7.40682 7.26004L7.32015 7.35336C7.36015 7.40669 7.40681 7.47335 7.48014 7.55335C7.62014 7.71335 7.77348 7.88669 7.94015 8.05335C8.10681 8.21335 8.27348 8.37335 8.44015 8.51335C8.52014 8.58002 8.58684 8.63336 8.64018 8.66669L8.73348 8.57335C8.85348 8.45335 8.97351 8.36004 9.09351 8.30004C9.31351 8.16004 9.65349 8.1267 9.95349 8.25336C10.0602 8.29336 10.1668 8.35336 10.2802 8.43336L11.3935 9.22002C11.5468 9.32669 11.6668 9.47336 11.7468 9.64002C11.8135 9.80669 11.8402 9.95336 11.8402 10.1067C11.8402 10.3067 11.7935 10.5 11.7068 10.6867C11.6202 10.86 11.5201 11.0134 11.4001 11.1534C11.1868 11.3867 10.9402 11.56 10.6735 11.6734C10.4068 11.7867 10.1202 11.84 9.82682 11.84ZM5.86015 5.16002C5.82015 5.16002 5.68685 5.16002 5.52018 5.32669C5.39352 5.44669 5.30683 5.57337 5.24683 5.71337C5.18683 5.85337 5.16016 6.01337 5.16016 6.17337C5.16016 6.45337 5.22681 6.75335 5.36015 7.07335C5.50015 7.40668 5.70683 7.76004 5.96016 8.11337C6.22016 8.4667 6.5135 8.82003 6.84017 9.1467C7.16684 9.4667 7.51349 9.76669 7.87349 10.0334C8.22016 10.2867 8.57351 10.4867 8.92684 10.64C9.43351 10.86 9.90015 10.9134 10.2802 10.7534C10.4135 10.7 10.5335 10.6067 10.6535 10.4867C10.7135 10.42 10.7602 10.3534 10.8002 10.2667C10.8202 10.22 10.8335 10.1667 10.8335 10.12C10.8335 10.1067 10.8335 10.0867 10.8135 10.0467L9.70015 9.27336C9.65349 9.24003 9.60681 9.21335 9.56681 9.20002C9.54015 9.21335 9.50017 9.23336 9.42684 9.30669L9.1735 9.56003C8.98017 9.75336 8.67351 9.80669 8.42684 9.72002L8.30684 9.66669C8.15351 9.58669 7.98016 9.4667 7.78682 9.30004C7.60016 9.14004 7.42018 8.97336 7.22685 8.78669C7.04018 8.59336 6.8735 8.41336 6.7135 8.22669C6.54017 8.02003 6.42017 7.85337 6.34017 7.71337L6.26685 7.54003C6.24685 7.47336 6.24015 7.40003 6.24015 7.33336C6.24015 7.14669 6.30685 6.98002 6.43351 6.84669L6.68685 6.5867C6.76018 6.51336 6.78684 6.47337 6.80017 6.4467C6.78017 6.40004 6.75351 6.36003 6.72017 6.31336L5.94014 5.21337L5.86015 5.16002Z" fill="#636161"/>
</svg>
