<?xml version="1.0" encoding="UTF-8"?>
<svg id="Layer_2" data-name="Layer 2" xmlns="http://www.w3.org/2000/svg" viewBox="0 0 605.28 266.01">
  <defs>
    <style>
      .cls-1 {
        fill: #fff;
        stroke-width: 0px;
      }
    </style>
  </defs>
  <g id="Layer_4" data-name="Layer 4">
    <g>
      <g>
        <polygon class="cls-1" points="457.56 111.68 461.08 109.65 468.11 113.71 464.59 115.74 457.56 111.68"/>
        <polygon class="cls-1" points="443.49 103.56 447.01 101.53 454.04 105.59 450.53 107.62 443.49 103.56"/>
        <polygon class="cls-1" points="461.08 109.65 468.11 113.71 475.15 109.65 468.11 105.59 461.08 109.65"/>
        <polygon class="cls-1" points="468.11 113.71 475.15 117.77 482.18 113.71 475.15 109.65 468.11 113.71"/>
        <polygon class="cls-1" points="475.15 117.77 482.18 121.83 489.21 117.77 482.18 113.71 475.15 117.77"/>
        <polygon class="cls-1" points="447.01 101.53 454.04 105.59 461.08 101.53 454.04 97.47 447.01 101.53"/>
        <polygon class="cls-1" points="397.77 64.98 390.73 69.04 397.77 73.1 404.8 69.04 397.77 64.98"/>
        <polygon class="cls-1" points="404.8 69.04 397.77 73.1 404.8 77.16 411.84 73.1 404.8 69.04"/>
        <polygon class="cls-1" points="411.84 73.1 404.8 77.16 411.84 81.22 418.87 77.16 411.84 73.1"/>
        <polygon class="cls-1" points="418.87 77.16 411.84 81.22 418.87 85.28 425.91 81.22 418.87 77.16"/>
        <polygon class="cls-1" points="425.91 81.22 418.87 85.28 425.91 89.34 432.94 85.28 425.91 81.22"/>
        <polygon class="cls-1" points="432.94 85.28 425.91 89.34 432.94 93.41 439.97 89.34 432.94 85.28"/>
        <polygon class="cls-1" points="439.97 89.34 432.94 93.41 439.97 97.47 447.01 93.41 439.97 89.34"/>
        <polygon class="cls-1" points="390.73 60.92 383.7 64.98 390.73 69.04 397.77 64.98 390.73 60.92"/>
        <polygon class="cls-1" points="383.7 56.86 376.67 60.92 383.7 64.98 390.73 60.92 383.7 56.86"/>
        <polygon class="cls-1" points="369.63 48.73 362.6 52.79 369.63 56.86 376.67 52.79 369.63 48.73"/>
        <polygon class="cls-1" points="383.7 40.61 376.67 44.67 383.7 48.73 390.73 44.67 383.7 40.61"/>
        <polygon class="cls-1" points="397.77 32.49 390.73 36.55 397.77 40.61 404.8 36.55 397.77 32.49"/>
        <polygon class="cls-1" points="390.73 52.79 383.7 56.86 390.73 60.92 397.77 56.86 390.73 52.79"/>
        <polygon class="cls-1" points="411.84 56.86 404.8 60.92 411.84 64.98 418.87 60.92 411.84 56.86"/>
        <polygon class="cls-1" points="418.87 60.92 411.84 64.98 418.87 69.04 425.91 64.98 418.87 60.92"/>
        <polygon class="cls-1" points="425.91 64.98 418.87 69.04 425.91 73.1 432.94 69.04 425.91 64.98"/>
        <polygon class="cls-1" points="432.94 69.04 425.91 73.1 432.94 77.16 439.97 73.1 432.94 69.04"/>
        <polygon class="cls-1" points="439.97 73.1 432.94 77.16 439.97 81.22 447.01 77.16 439.97 73.1"/>
        <polygon class="cls-1" points="454.04 64.98 447.01 69.04 454.04 73.1 461.08 69.04 454.04 64.98"/>
        <polygon class="cls-1" points="447.01 77.16 439.97 81.22 447.01 85.28 454.04 81.22 447.01 77.16"/>
        <polygon class="cls-1" points="461.08 69.04 454.04 73.1 461.08 77.16 468.11 73.1 461.08 69.04"/>
        <polygon class="cls-1" points="454.04 81.22 447.01 85.28 454.04 89.34 461.08 85.28 454.04 81.22"/>
        <polygon class="cls-1" points="468.11 73.1 461.08 77.16 468.11 81.22 475.15 77.16 468.11 73.1"/>
        <polygon class="cls-1" points="461.08 85.28 454.04 89.34 461.08 93.41 468.11 89.34 461.08 85.28"/>
        <polygon class="cls-1" points="475.15 77.16 468.11 81.22 475.15 85.28 482.18 81.22 475.15 77.16"/>
        <polygon class="cls-1" points="468.11 89.34 461.08 93.41 468.11 97.47 475.15 93.41 468.11 89.34"/>
        <polygon class="cls-1" points="482.18 81.22 475.15 85.28 482.18 89.34 489.21 85.28 482.18 81.22"/>
        <polygon class="cls-1" points="475.15 93.41 468.11 97.47 475.15 101.53 482.18 97.47 475.15 93.41"/>
        <polygon class="cls-1" points="489.21 85.28 482.18 89.34 489.21 93.41 496.25 89.34 489.21 85.28"/>
        <polygon class="cls-1" points="482.18 97.47 475.15 101.53 482.18 105.59 489.21 101.53 482.18 97.47"/>
        <polygon class="cls-1" points="496.25 89.34 489.21 93.41 496.25 97.47 503.28 93.41 496.25 89.34"/>
        <polygon class="cls-1" points="489.21 101.53 482.18 105.59 489.21 109.65 496.25 105.59 489.21 101.53"/>
        <polygon class="cls-1" points="503.28 93.41 496.25 97.47 503.28 101.53 510.32 97.47 503.28 93.41"/>
        <polygon class="cls-1" points="496.25 105.59 489.21 109.65 496.25 113.71 503.28 109.65 496.25 105.59"/>
        <polygon class="cls-1" points="510.32 97.47 503.28 101.53 510.32 105.59 517.35 101.53 510.32 97.47"/>
        <polygon class="cls-1" points="506.8 111.68 499.77 115.74 496.25 113.71 503.28 109.65 506.8 111.68"/>
        <polygon class="cls-1" points="520.87 103.56 513.83 107.62 510.32 105.59 517.35 101.53 520.87 103.56"/>
        <polygon class="cls-1" points="404.8 52.79 397.77 56.86 404.8 60.92 411.84 56.86 404.8 52.79"/>
        <polygon class="cls-1" points="397.77 48.73 390.73 52.79 397.77 56.86 404.8 52.79 397.77 48.73"/>
        <polygon class="cls-1" points="404.8 44.67 397.77 48.73 404.8 52.79 411.84 48.73 404.8 44.67"/>
        <polygon class="cls-1" points="411.84 40.61 404.8 44.67 411.84 48.73 418.87 44.67 411.84 40.61"/>
        <polygon class="cls-1" points="418.87 44.67 411.84 48.73 418.87 52.79 425.91 48.73 418.87 44.67"/>
        <polygon class="cls-1" points="425.91 48.73 418.87 52.79 425.91 56.86 432.94 52.79 425.91 48.73"/>
        <polygon class="cls-1" points="432.94 52.79 425.91 56.86 432.94 60.92 439.97 56.86 432.94 52.79"/>
        <polygon class="cls-1" points="439.97 56.86 432.94 60.92 439.97 64.98 447.01 60.92 439.97 56.86"/>
        <polygon class="cls-1" points="447.01 60.92 439.97 64.98 447.01 69.04 454.04 64.98 447.01 60.92"/>
        <polygon class="cls-1" points="439.97 40.61 432.94 44.67 439.97 48.73 447.01 44.67 439.97 40.61"/>
        <polygon class="cls-1" points="432.94 36.55 425.91 40.61 432.94 44.67 439.97 40.61 432.94 36.55"/>
        <polygon class="cls-1" points="425.91 32.49 418.87 36.55 425.91 40.61 432.94 36.55 425.91 32.49"/>
        <polygon class="cls-1" points="432.94 28.43 425.91 32.49 432.94 36.55 439.97 32.49 432.94 28.43"/>
        <polygon class="cls-1" points="439.97 24.37 432.94 28.43 439.97 32.49 447.01 28.43 439.97 24.37"/>
        <polygon class="cls-1" points="447.01 28.43 439.97 32.49 447.01 36.55 454.04 32.49 447.01 28.43"/>
        <polygon class="cls-1" points="454.04 32.49 447.01 36.55 454.04 40.61 461.08 36.55 454.04 32.49"/>
        <polygon class="cls-1" points="447.01 20.31 439.97 24.37 447.01 28.43 454.04 24.37 447.01 20.31"/>
        <polygon class="cls-1" points="454.04 16.24 447.01 20.31 454.04 24.37 461.08 20.31 454.04 16.24"/>
        <polygon class="cls-1" points="461.08 20.31 454.04 24.37 461.08 28.43 468.11 24.37 461.08 20.31"/>
        <polygon class="cls-1" points="468.11 24.37 461.08 28.43 468.11 32.49 475.15 28.43 468.11 24.37"/>
        <polygon class="cls-1" points="447.01 44.67 439.97 48.73 447.01 52.79 454.04 48.73 447.01 44.67"/>
        <polygon class="cls-1" points="461.08 36.55 454.04 40.61 461.08 44.67 468.11 40.61 461.08 36.55"/>
        <polygon class="cls-1" points="475.15 28.43 468.11 32.49 475.15 36.55 482.18 32.49 475.15 28.43"/>
        <polygon class="cls-1" points="454.04 48.73 447.01 52.79 454.04 56.86 461.08 52.79 454.04 48.73"/>
        <polygon class="cls-1" points="468.11 40.61 461.08 44.67 468.11 48.73 475.15 44.67 468.11 40.61"/>
        <polygon class="cls-1" points="461.08 52.79 454.04 56.86 461.08 60.92 468.11 56.86 461.08 52.79"/>
        <polygon class="cls-1" points="475.15 44.67 468.11 48.73 475.15 52.79 482.18 48.73 475.15 44.67"/>
        <polygon class="cls-1" points="468.11 56.86 461.08 60.92 468.11 64.98 475.15 60.92 468.11 56.86"/>
        <polygon class="cls-1" points="482.18 48.73 475.15 52.79 482.18 56.86 489.21 52.79 482.18 48.73"/>
        <polygon class="cls-1" points="475.15 60.92 468.11 64.98 475.15 69.04 482.18 64.98 475.15 60.92"/>
        <polygon class="cls-1" points="489.21 52.79 482.18 56.86 489.21 60.92 496.25 56.86 489.21 52.79"/>
        <polygon class="cls-1" points="482.18 64.98 475.15 69.04 482.18 73.1 489.21 69.04 482.18 64.98"/>
        <polygon class="cls-1" points="496.25 56.86 489.21 60.92 496.25 64.98 503.28 60.92 496.25 56.86"/>
        <polygon class="cls-1" points="489.21 69.04 482.18 73.1 489.21 77.16 496.25 73.1 489.21 69.04"/>
        <polygon class="cls-1" points="503.28 60.92 496.25 64.98 503.28 69.04 510.32 64.98 503.28 60.92"/>
        <polygon class="cls-1" points="496.25 73.1 489.21 77.16 496.25 81.22 503.28 77.16 496.25 73.1"/>
        <polygon class="cls-1" points="510.32 64.98 503.28 69.04 510.32 73.1 517.35 69.04 510.32 64.98"/>
        <polygon class="cls-1" points="482.18 32.49 475.15 36.55 482.18 40.61 489.21 36.55 482.18 32.49"/>
        <polygon class="cls-1" points="454.04 16.24 447.01 20.31 454.04 24.37 461.08 20.31 454.04 16.24"/>
        <polygon class="cls-1" points="461.08 12.18 454.04 16.24 461.08 20.31 468.11 16.24 461.08 12.18"/>
        <polygon class="cls-1" points="468.11 8.12 461.08 12.18 468.11 16.24 475.15 12.18 468.11 8.12"/>
        <polygon class="cls-1" points="475.15 4.06 468.11 8.12 475.15 12.18 482.18 8.12 475.15 4.06"/>
        <polygon class="cls-1" points="482.18 0 475.15 4.06 482.18 8.12 489.21 4.06 482.18 0"/>
        <polygon class="cls-1" points="489.21 4.06 482.18 8.12 489.21 12.18 496.25 8.12 489.21 4.06"/>
        <polygon class="cls-1" points="496.25 8.12 489.21 12.18 496.25 16.24 503.28 12.18 496.25 8.12"/>
        <polygon class="cls-1" points="503.28 12.18 496.25 16.24 503.28 20.31 510.32 16.24 503.28 12.18"/>
        <polygon class="cls-1" points="510.32 16.24 503.28 20.31 510.32 24.37 517.35 20.31 510.32 16.24"/>
        <polygon class="cls-1" points="503.28 20.31 496.25 24.37 503.28 28.43 510.32 24.37 503.28 20.31"/>
        <polygon class="cls-1" points="496.25 24.37 489.21 28.43 496.25 32.49 503.28 28.43 496.25 24.37"/>
        <polygon class="cls-1" points="489.21 20.31 482.18 24.37 489.21 28.43 496.25 24.37 489.21 20.31"/>
        <polygon class="cls-1" points="482.18 16.24 475.15 20.31 482.18 24.37 489.21 20.31 482.18 16.24"/>
        <polygon class="cls-1" points="531.42 44.67 524.39 40.61 517.35 44.67 524.39 48.73 531.42 44.67"/>
        <polygon class="cls-1" points="524.39 40.61 517.35 36.55 510.32 40.61 517.35 44.67 524.39 40.61"/>
        <polygon class="cls-1" points="517.35 36.55 510.32 32.49 503.28 36.55 510.32 40.61 517.35 36.55"/>
        <polygon class="cls-1" points="524.39 32.49 517.35 28.43 510.32 32.49 517.35 36.55 524.39 32.49"/>
        <polygon class="cls-1" points="531.42 28.43 524.39 24.37 517.35 28.43 524.39 32.49 531.42 28.43"/>
        <polygon class="cls-1" points="538.45 32.49 531.42 28.43 524.39 32.49 531.42 36.55 538.45 32.49"/>
        <polygon class="cls-1" points="545.49 36.55 538.45 32.49 531.42 36.55 538.45 40.61 545.49 36.55"/>
        <polygon class="cls-1" points="552.52 40.61 545.49 36.55 538.45 40.61 545.49 44.67 552.52 40.61"/>
        <polygon class="cls-1" points="559.56 44.67 552.52 40.61 545.49 44.67 552.52 48.73 559.56 44.67"/>
        <polygon class="cls-1" points="566.59 48.73 559.56 44.67 552.52 48.73 559.56 52.79 566.59 48.73"/>
        <polygon class="cls-1" points="573.63 52.79 566.59 48.73 559.56 52.79 566.59 56.86 573.63 52.79"/>
        <polygon class="cls-1" points="566.59 56.86 559.56 52.79 552.52 56.86 559.56 60.92 566.59 56.86"/>
        <polygon class="cls-1" points="559.56 60.92 552.52 56.86 545.49 60.92 552.52 64.98 559.56 60.92"/>
        <polygon class="cls-1" points="552.52 64.98 545.49 60.92 538.45 64.98 545.49 69.04 552.52 64.98"/>
        <polygon class="cls-1" points="545.49 69.04 538.45 64.98 531.42 69.04 538.45 73.1 545.49 69.04"/>
        <polygon class="cls-1" points="538.45 73.1 531.42 69.04 524.39 73.1 531.42 77.16 538.45 73.1"/>
        <polygon class="cls-1" points="531.42 77.16 524.39 73.1 517.35 77.16 524.39 81.22 531.42 77.16"/>
        <polygon class="cls-1" points="524.39 81.22 517.35 77.16 510.32 81.22 517.35 85.28 524.39 81.22"/>
        <polygon class="cls-1" points="517.35 85.28 510.32 81.22 503.28 85.28 510.32 89.34 517.35 85.28"/>
        <polygon class="cls-1" points="524.39 89.34 517.35 85.28 510.32 89.34 517.35 93.41 524.39 89.34"/>
        <polygon class="cls-1" points="531.42 93.41 524.39 89.34 517.35 93.41 524.39 97.47 531.42 93.41"/>
        <polygon class="cls-1" points="538.45 89.34 531.42 85.28 524.39 89.34 531.42 93.41 538.45 89.34"/>
        <polygon class="cls-1" points="587.69 60.92 580.66 56.86 573.63 60.92 580.66 64.98 587.69 60.92"/>
        <polygon class="cls-1" points="580.66 56.86 573.63 52.79 566.59 56.86 573.63 60.92 580.66 56.86"/>
        <polygon class="cls-1" points="545.49 85.28 538.45 81.22 531.42 85.28 538.45 89.34 545.49 85.28"/>
        <polygon class="cls-1" points="552.52 81.22 545.49 77.16 538.45 81.22 545.49 85.28 552.52 81.22"/>
        <polygon class="cls-1" points="559.56 77.16 552.52 73.1 545.49 77.16 552.52 81.22 559.56 77.16"/>
        <polygon class="cls-1" points="566.59 73.1 559.56 69.04 552.52 73.1 559.56 77.16 566.59 73.1"/>
        <polygon class="cls-1" points="573.63 69.04 566.59 64.98 559.56 69.04 566.59 73.1 573.63 69.04"/>
        <polygon class="cls-1" points="538.45 48.73 531.42 44.67 524.39 48.73 531.42 52.79 538.45 48.73"/>
        <polygon class="cls-1" points="545.49 52.79 538.45 48.73 531.42 52.79 538.45 56.86 545.49 52.79"/>
        <polygon class="cls-1" points="538.45 56.86 531.42 52.79 524.39 56.86 531.42 60.92 538.45 56.86"/>
        <polygon class="cls-1" points="531.42 60.92 524.39 56.86 517.35 60.92 524.39 64.98 531.42 60.92"/>
        <polygon class="cls-1" points="524.39 56.86 517.35 52.79 510.32 56.86 517.35 60.92 524.39 56.86"/>
        <polygon class="cls-1" points="517.35 52.79 510.32 48.73 503.28 52.79 510.32 56.86 517.35 52.79"/>
        <polygon class="cls-1" points="510.32 48.73 503.28 44.67 496.25 48.73 503.28 52.79 510.32 48.73"/>
        <polygon class="cls-1" points="503.28 44.67 496.25 40.61 489.21 44.67 496.25 48.73 503.28 44.67"/>
        <polygon class="cls-1" points="482.18 154.32 478.66 152.29 478.66 144.17 482.18 146.2 482.18 154.32"/>
        <polygon class="cls-1" points="482.18 170.57 478.66 168.54 478.66 160.42 482.18 162.45 482.18 170.57"/>
        <polygon class="cls-1" points="478.66 152.29 478.66 144.17 471.63 140.11 471.63 148.23 478.66 152.29"/>
        <polygon class="cls-1" points="478.66 144.17 478.66 136.05 471.63 131.99 471.63 140.11 478.66 144.17"/>
        <polygon class="cls-1" points="478.66 136.05 478.66 127.93 471.63 123.86 471.63 131.99 478.66 136.05"/>
        <polygon class="cls-1" points="478.66 168.54 478.66 160.42 471.63 156.35 471.63 164.48 478.66 168.54"/>
        <polygon class="cls-1" points="471.63 229.46 478.66 233.52 478.66 225.4 471.63 221.33 471.63 229.46"/>
        <polygon class="cls-1" points="471.63 221.33 478.66 225.4 478.66 217.27 471.63 213.21 471.63 221.33"/>
        <polygon class="cls-1" points="471.63 213.21 478.66 217.27 478.66 209.15 471.63 205.09 471.63 213.21"/>
        <polygon class="cls-1" points="471.63 205.09 478.66 209.15 478.66 201.03 471.63 196.97 471.63 205.09"/>
        <polygon class="cls-1" points="471.63 196.97 478.66 201.03 478.66 192.91 471.63 188.84 471.63 196.97"/>
        <polygon class="cls-1" points="471.63 188.84 478.66 192.91 478.66 184.78 471.63 180.72 471.63 188.84"/>
        <polygon class="cls-1" points="471.63 180.72 478.66 184.78 478.66 176.66 471.63 172.6 471.63 180.72"/>
        <polygon class="cls-1" points="471.63 237.58 478.66 241.64 478.66 233.52 471.63 229.46 471.63 237.58"/>
        <polygon class="cls-1" points="471.63 245.7 478.66 249.76 478.66 241.64 471.63 237.58 471.63 245.7"/>
        <polygon class="cls-1" points="471.63 261.95 478.66 266.01 478.66 257.88 471.63 253.82 471.63 261.95"/>
        <polygon class="cls-1" points="457.56 253.82 464.6 257.88 464.6 249.76 457.56 245.7 457.56 253.82"/>
        <polygon class="cls-1" points="443.49 245.7 450.53 249.76 450.53 241.64 443.49 237.58 443.49 245.7"/>
        <polygon class="cls-1" points="464.6 241.64 471.63 245.7 471.63 237.58 464.6 233.52 464.6 241.64"/>
        <polygon class="cls-1" points="457.56 221.33 464.6 225.39 464.6 217.27 457.56 213.21 457.56 221.33"/>
        <polygon class="cls-1" points="457.56 213.21 464.6 217.27 464.6 209.15 457.56 205.09 457.56 213.21"/>
        <polygon class="cls-1" points="457.56 205.09 464.6 209.15 464.6 201.03 457.56 196.97 457.56 205.09"/>
        <polygon class="cls-1" points="457.56 196.97 464.6 201.03 464.6 192.91 457.56 188.84 457.56 196.97"/>
        <polygon class="cls-1" points="457.56 188.84 464.6 192.91 464.6 184.78 457.56 180.72 457.56 188.84"/>
        <polygon class="cls-1" points="443.49 180.72 450.53 184.78 450.53 176.66 443.49 172.6 443.49 180.72"/>
        <polygon class="cls-1" points="457.56 180.72 464.6 184.78 464.6 176.66 457.56 172.6 457.56 180.72"/>
        <polygon class="cls-1" points="443.49 172.6 450.53 176.66 450.53 168.54 443.49 164.48 443.49 172.6"/>
        <polygon class="cls-1" points="457.56 172.6 464.6 176.66 464.6 168.54 457.56 164.48 457.56 172.6"/>
        <polygon class="cls-1" points="443.49 164.48 450.53 168.54 450.53 160.42 443.49 156.35 443.49 164.48"/>
        <polygon class="cls-1" points="457.56 164.48 464.6 168.54 464.6 160.42 457.56 156.35 457.56 164.48"/>
        <polygon class="cls-1" points="443.49 156.35 450.53 160.42 450.53 152.29 443.49 148.23 443.49 156.35"/>
        <polygon class="cls-1" points="457.56 156.35 464.6 160.42 464.6 152.29 457.56 148.23 457.56 156.35"/>
        <polygon class="cls-1" points="443.49 148.23 450.53 152.29 450.53 144.17 443.49 140.11 443.49 148.23"/>
        <polygon class="cls-1" points="457.56 148.23 464.6 152.29 464.59 144.17 457.56 140.11 457.56 148.23"/>
        <polygon class="cls-1" points="443.49 140.11 450.53 144.17 450.53 136.05 443.49 131.99 443.49 140.11"/>
        <polygon class="cls-1" points="457.56 140.11 464.59 144.17 464.59 136.05 457.56 131.99 457.56 140.11"/>
        <polygon class="cls-1" points="443.49 131.99 450.53 136.05 450.53 127.93 443.49 123.86 443.49 131.99"/>
        <polygon class="cls-1" points="457.56 131.99 464.59 136.05 464.59 127.93 457.56 123.86 457.56 131.99"/>
        <polygon class="cls-1" points="443.49 123.86 450.53 127.93 450.53 119.8 443.49 115.74 443.49 123.86"/>
        <polygon class="cls-1" points="457.56 123.86 464.59 127.93 464.59 119.8 457.56 115.74 457.56 123.86"/>
        <polygon class="cls-1" points="443.49 115.74 450.53 119.8 450.53 111.68 443.49 107.62 443.49 115.74"/>
        <polygon class="cls-1" points="457.56 111.68 464.59 115.74 464.59 119.8 457.56 115.74 457.56 111.68"/>
        <polygon class="cls-1" points="443.49 103.56 450.53 107.62 450.53 111.68 443.49 107.62 443.49 103.56"/>
        <polygon class="cls-1" points="457.56 229.46 464.6 233.52 464.6 225.39 457.56 221.33 457.56 229.46"/>
        <polygon class="cls-1" points="457.56 237.58 464.6 241.64 464.6 233.52 457.56 229.46 457.56 237.58"/>
        <polygon class="cls-1" points="450.53 233.52 457.56 237.58 457.56 229.46 450.53 225.39 450.53 233.52"/>
        <polygon class="cls-1" points="443.49 229.46 450.53 233.52 450.53 225.39 443.49 221.33 443.49 229.46"/>
        <polygon class="cls-1" points="443.49 221.33 450.53 225.39 450.53 217.27 443.49 213.21 443.49 221.33"/>
        <polygon class="cls-1" points="443.49 213.21 450.53 217.27 450.53 209.15 443.49 205.09 443.49 213.21"/>
        <polygon class="cls-1" points="443.49 205.09 450.53 209.15 450.53 201.03 443.49 196.97 443.49 205.09"/>
        <polygon class="cls-1" points="443.49 196.97 450.53 201.03 450.53 192.91 443.49 188.84 443.49 196.97"/>
        <polygon class="cls-1" points="443.49 188.84 450.53 192.91 450.53 184.78 443.49 180.72 443.49 188.84"/>
        <polygon class="cls-1" points="429.43 205.09 436.46 209.15 436.46 201.03 429.42 196.97 429.43 205.09"/>
        <polygon class="cls-1" points="429.43 213.21 436.46 217.27 436.46 209.15 429.43 205.09 429.43 213.21"/>
        <polygon class="cls-1" points="429.43 221.33 436.46 225.39 436.46 217.27 429.43 213.21 429.43 221.33"/>
        <polygon class="cls-1" points="422.39 217.27 429.43 221.33 429.43 213.21 422.39 209.15 422.39 217.27"/>
        <polygon class="cls-1" points="415.36 213.21 422.39 217.27 422.39 209.15 415.36 205.09 415.36 213.21"/>
        <polygon class="cls-1" points="415.36 205.09 422.39 209.15 422.39 201.03 415.36 196.97 415.36 205.09"/>
        <polygon class="cls-1" points="415.36 196.97 422.39 201.03 422.39 192.9 415.36 188.84 415.36 196.97"/>
        <polygon class="cls-1" points="408.32 209.15 415.36 213.21 415.36 205.09 408.32 201.03 408.32 209.15"/>
        <polygon class="cls-1" points="401.29 205.09 408.32 209.15 408.32 201.03 401.29 196.97 401.29 205.09"/>
        <polygon class="cls-1" points="401.29 196.97 408.32 201.03 408.32 192.9 401.29 188.84 401.29 196.97"/>
        <polygon class="cls-1" points="401.29 188.84 408.32 192.9 408.32 184.78 401.29 180.72 401.29 188.84"/>
        <polygon class="cls-1" points="429.42 196.97 436.46 201.03 436.46 192.9 429.42 188.84 429.42 196.97"/>
        <polygon class="cls-1" points="415.36 188.84 422.39 192.9 422.39 184.78 415.36 180.72 415.36 188.84"/>
        <polygon class="cls-1" points="401.29 180.72 408.32 184.78 408.32 176.66 401.29 172.6 401.29 180.72"/>
        <polygon class="cls-1" points="429.42 188.84 436.46 192.9 436.46 184.78 429.42 180.72 429.42 188.84"/>
        <polygon class="cls-1" points="415.36 180.72 422.39 184.78 422.39 176.66 415.36 172.6 415.36 180.72"/>
        <polygon class="cls-1" points="429.42 180.72 436.46 184.78 436.46 176.66 429.42 172.6 429.42 180.72"/>
        <polygon class="cls-1" points="415.36 172.6 422.39 176.66 422.39 168.54 415.36 164.48 415.36 172.6"/>
        <polygon class="cls-1" points="429.42 172.6 436.46 176.66 436.46 168.54 429.42 164.48 429.42 172.6"/>
        <polygon class="cls-1" points="415.36 164.48 422.39 168.54 422.39 160.41 415.36 156.35 415.36 164.48"/>
        <polygon class="cls-1" points="429.42 164.48 436.46 168.54 436.46 160.42 429.42 156.35 429.42 164.48"/>
        <polygon class="cls-1" points="415.36 156.35 422.39 160.41 422.39 152.29 415.36 148.23 415.36 156.35"/>
        <polygon class="cls-1" points="429.42 156.35 436.46 160.42 436.46 152.29 429.42 148.23 429.42 156.35"/>
        <polygon class="cls-1" points="415.36 148.23 422.39 152.29 422.39 144.17 415.36 140.11 415.36 148.23"/>
        <polygon class="cls-1" points="429.42 148.23 436.46 152.29 436.46 144.17 429.42 140.11 429.42 148.23"/>
        <polygon class="cls-1" points="415.36 140.11 422.39 144.17 422.39 136.05 415.36 131.99 415.36 140.11"/>
        <polygon class="cls-1" points="429.42 140.11 436.46 144.17 436.46 136.05 429.42 131.99 429.42 140.11"/>
        <polygon class="cls-1" points="415.36 131.99 422.39 136.05 422.39 127.93 415.36 123.86 415.36 131.99"/>
        <polygon class="cls-1" points="401.29 172.6 408.32 176.66 408.32 168.54 401.29 164.48 401.29 172.6"/>
        <polygon class="cls-1" points="401.29 205.09 408.32 209.15 408.32 201.03 401.29 196.97 401.29 205.09"/>
        <polygon class="cls-1" points="394.25 201.03 401.29 205.09 401.29 196.97 394.25 192.9 394.25 201.03"/>
        <polygon class="cls-1" points="387.22 196.97 394.25 201.03 394.25 192.9 387.22 188.84 387.22 196.97"/>
        <polygon class="cls-1" points="380.19 192.9 387.22 196.97 387.22 188.84 380.19 184.78 380.19 192.9"/>
        <polygon class="cls-1" points="373.15 188.84 380.19 192.9 380.19 184.78 373.15 180.72 373.15 188.84"/>
        <polygon class="cls-1" points="373.15 180.72 380.19 184.78 380.19 176.66 373.15 172.6 373.15 180.72"/>
        <polygon class="cls-1" points="373.15 172.6 380.19 176.66 380.19 168.54 373.15 164.48 373.15 172.6"/>
        <polygon class="cls-1" points="373.15 164.48 380.19 168.54 380.19 160.41 373.15 156.35 373.15 164.48"/>
        <polygon class="cls-1" points="373.15 156.35 380.19 160.41 380.19 152.29 373.15 148.23 373.15 156.35"/>
        <polygon class="cls-1" points="380.19 160.41 387.22 164.48 387.22 156.35 380.19 152.29 380.19 160.41"/>
        <polygon class="cls-1" points="387.22 164.48 394.25 168.54 394.25 160.41 387.22 156.35 387.22 164.48"/>
        <polygon class="cls-1" points="387.22 172.6 394.25 176.66 394.25 168.54 387.22 164.48 387.22 172.6"/>
        <polygon class="cls-1" points="387.22 180.72 394.25 184.78 394.25 176.66 387.22 172.6 387.22 180.72"/>
        <polygon class="cls-1" points="387.22 123.86 387.22 131.99 394.25 136.05 394.25 127.92 387.22 123.86"/>
        <polygon class="cls-1" points="387.22 131.99 387.22 140.11 394.25 144.17 394.25 136.05 387.22 131.99"/>
        <polygon class="cls-1" points="387.22 140.11 387.22 148.23 394.25 152.29 394.25 144.17 387.22 140.11"/>
        <polygon class="cls-1" points="380.19 136.05 380.19 144.17 387.22 148.23 387.22 140.11 380.19 136.05"/>
        <polygon class="cls-1" points="373.15 131.99 373.15 140.11 380.19 144.17 380.19 136.05 373.15 131.99"/>
        <polygon class="cls-1" points="373.15 123.86 373.15 131.99 380.19 136.05 380.19 127.92 373.15 123.86"/>
        <polygon class="cls-1" points="373.15 115.74 373.15 123.86 380.19 127.92 380.19 119.8 373.15 115.74"/>
        <polygon class="cls-1" points="373.15 107.62 373.15 115.74 380.19 119.8 380.18 111.68 373.15 107.62"/>
        <polygon class="cls-1" points="373.15 99.5 373.15 107.62 380.18 111.68 380.18 103.56 373.15 99.5"/>
        <polygon class="cls-1" points="373.15 91.37 373.15 99.5 380.18 103.56 380.18 95.43 373.15 91.37"/>
        <polygon class="cls-1" points="373.15 83.25 373.15 91.37 380.18 95.43 380.18 87.31 373.15 83.25"/>
        <polygon class="cls-1" points="380.18 87.31 380.18 95.43 387.22 99.5 387.22 91.37 380.18 87.31"/>
        <polygon class="cls-1" points="387.22 91.37 387.22 99.5 394.25 103.56 394.25 95.44 387.22 91.37"/>
        <polygon class="cls-1" points="394.25 95.44 394.25 103.56 401.29 107.62 401.29 99.5 394.25 95.44"/>
        <polygon class="cls-1" points="401.29 99.5 401.29 107.62 408.32 111.68 408.32 103.56 401.29 99.5"/>
        <polygon class="cls-1" points="408.32 103.56 408.32 111.68 415.36 115.74 415.36 107.62 408.32 103.56"/>
        <polygon class="cls-1" points="415.36 107.62 415.36 115.74 422.39 119.8 422.39 111.68 415.36 107.62"/>
        <polygon class="cls-1" points="422.39 111.68 422.39 119.8 429.42 123.86 429.42 115.74 422.39 111.68"/>
        <polygon class="cls-1" points="429.42 115.74 429.42 123.86 436.46 127.93 436.46 119.8 429.42 115.74"/>
        <polygon class="cls-1" points="429.42 107.62 429.42 115.74 436.46 119.8 436.46 111.68 429.42 107.62"/>
        <polygon class="cls-1" points="429.42 99.5 429.42 107.62 436.46 111.68 436.46 103.56 429.42 99.5"/>
        <polygon class="cls-1" points="422.39 95.44 422.39 103.56 429.42 107.62 429.42 99.5 422.39 95.44"/>
        <polygon class="cls-1" points="373.15 67.01 373.15 75.13 380.18 79.19 380.18 71.07 373.15 67.01"/>
        <polygon class="cls-1" points="373.15 75.13 373.15 83.25 380.18 87.31 380.18 79.19 373.15 75.13"/>
        <polygon class="cls-1" points="415.36 91.37 415.36 99.5 422.39 103.56 422.39 95.44 415.36 91.37"/>
        <polygon class="cls-1" points="408.32 87.31 408.32 95.44 415.36 99.5 415.36 91.37 408.32 87.31"/>
        <polygon class="cls-1" points="401.29 83.25 401.29 91.37 408.32 95.44 408.32 87.31 401.29 83.25"/>
        <polygon class="cls-1" points="394.25 79.19 394.25 87.31 401.29 91.37 401.29 83.25 394.25 79.19"/>
        <polygon class="cls-1" points="387.22 75.13 387.22 83.25 394.25 87.31 394.25 79.19 387.22 75.13"/>
        <polygon class="cls-1" points="387.22 115.74 387.22 123.86 394.25 127.92 394.25 119.8 387.22 115.74"/>
        <polygon class="cls-1" points="387.22 107.62 387.22 115.74 394.25 119.8 394.25 111.68 387.22 107.62"/>
        <polygon class="cls-1" points="394.25 111.68 394.25 119.8 401.29 123.86 401.29 115.74 394.25 111.68"/>
        <polygon class="cls-1" points="401.29 115.74 401.29 123.86 408.32 127.93 408.32 119.8 401.29 115.74"/>
        <polygon class="cls-1" points="401.29 123.86 401.29 131.99 408.32 136.05 408.32 127.93 401.29 123.86"/>
        <polygon class="cls-1" points="401.29 131.99 401.29 140.11 408.32 144.17 408.32 136.05 401.29 131.99"/>
        <polygon class="cls-1" points="401.29 140.11 401.29 148.23 408.32 152.29 408.32 144.17 401.29 140.11"/>
        <polygon class="cls-1" points="401.29 148.23 401.29 156.35 408.32 160.41 408.32 152.29 401.29 148.23"/>
        <polygon class="cls-1" points="506.8 111.68 506.8 115.74 499.77 119.8 499.77 115.74 506.8 111.68"/>
        <polygon class="cls-1" points="520.87 103.56 520.87 107.62 513.83 111.68 513.83 107.62 520.87 103.56"/>
        <polygon class="cls-1" points="506.8 115.74 499.77 119.8 499.77 127.93 506.8 123.86 506.8 115.74"/>
        <polygon class="cls-1" points="499.77 119.8 492.73 123.86 492.73 131.99 499.77 127.93 499.77 119.8"/>
        <polygon class="cls-1" points="492.73 123.86 485.7 127.93 485.7 136.05 492.73 131.99 492.73 123.86"/>
        <polygon class="cls-1" points="520.87 107.62 513.83 111.68 513.83 119.8 520.87 115.74 520.87 107.62"/>
        <polygon class="cls-1" points="577.14 83.25 577.14 75.13 570.11 79.19 570.11 87.31 577.14 83.25"/>
        <polygon class="cls-1" points="570.11 87.31 570.11 79.19 563.07 83.25 563.07 91.37 570.11 87.31"/>
        <polygon class="cls-1" points="563.07 91.37 563.07 83.25 556.04 87.31 556.04 95.44 563.07 91.37"/>
        <polygon class="cls-1" points="556.04 95.44 556.04 87.31 549.01 91.37 549.01 99.5 556.04 95.44"/>
        <polygon class="cls-1" points="549.01 99.5 549.01 91.37 541.97 95.44 541.97 103.56 549.01 99.5"/>
        <polygon class="cls-1" points="541.97 103.56 541.97 95.44 534.94 99.5 534.94 107.62 541.97 103.56"/>
        <polygon class="cls-1" points="534.94 107.62 534.94 99.5 527.9 103.56 527.9 111.68 534.94 107.62"/>
        <polygon class="cls-1" points="584.18 79.19 584.18 71.07 577.14 75.13 577.14 83.25 584.18 79.19"/>
        <polygon class="cls-1" points="591.21 75.13 591.21 67.01 584.18 71.07 584.18 79.19 591.21 75.13"/>
        <polygon class="cls-1" points="605.28 67.01 605.28 58.88 598.24 62.94 598.24 71.07 605.28 67.01"/>
        <polygon class="cls-1" points="605.28 83.25 605.28 75.13 598.24 79.19 598.24 87.31 605.28 83.25"/>
        <polygon class="cls-1" points="605.28 99.5 605.28 91.37 598.24 95.43 598.24 103.56 605.28 99.5"/>
        <polygon class="cls-1" points="591.21 83.25 591.21 75.13 584.18 79.19 584.18 87.31 591.21 83.25"/>
        <polygon class="cls-1" points="577.14 99.5 577.14 91.37 570.11 95.44 570.11 103.56 577.14 99.5"/>
        <polygon class="cls-1" points="570.11 103.56 570.11 95.44 563.07 99.5 563.07 107.62 570.11 103.56"/>
        <polygon class="cls-1" points="563.07 107.62 563.07 99.5 556.04 103.56 556.04 111.68 563.07 107.62"/>
        <polygon class="cls-1" points="556.04 111.68 556.04 103.56 549 107.62 549 115.74 556.04 111.68"/>
        <polygon class="cls-1" points="549 115.74 549 107.62 541.97 111.68 541.97 119.8 549 115.74"/>
        <polygon class="cls-1" points="549 131.99 549 123.86 541.97 127.93 541.97 136.05 549 131.99"/>
        <polygon class="cls-1" points="541.97 119.8 541.97 111.68 534.94 115.74 534.94 123.86 541.97 119.8"/>
        <polygon class="cls-1" points="541.97 136.05 541.97 127.93 534.94 131.99 534.94 140.11 541.97 136.05"/>
        <polygon class="cls-1" points="534.94 123.86 534.94 115.74 527.9 119.8 527.9 127.93 534.94 123.86"/>
        <polygon class="cls-1" points="534.94 140.11 534.94 131.99 527.9 136.05 527.9 144.17 534.94 140.11"/>
        <polygon class="cls-1" points="527.9 127.93 527.9 119.8 520.87 123.86 520.87 131.99 527.9 127.93"/>
        <polygon class="cls-1" points="527.9 144.17 527.9 136.05 520.87 140.11 520.87 148.23 527.9 144.17"/>
        <polygon class="cls-1" points="520.87 131.99 520.87 123.86 513.83 127.93 513.83 136.05 520.87 131.99"/>
        <polygon class="cls-1" points="520.87 148.23 520.87 140.11 513.83 144.17 513.83 152.29 520.87 148.23"/>
        <polygon class="cls-1" points="513.83 136.05 513.83 127.93 506.8 131.99 506.8 140.11 513.83 136.05"/>
        <polygon class="cls-1" points="513.83 152.29 513.83 144.17 506.8 148.23 506.8 156.35 513.83 152.29"/>
        <polygon class="cls-1" points="506.8 140.11 506.8 131.99 499.77 136.05 499.77 144.17 506.8 140.11"/>
        <polygon class="cls-1" points="506.8 156.35 506.8 148.23 499.77 152.29 499.77 160.42 506.8 156.35"/>
        <polygon class="cls-1" points="499.77 144.17 499.77 136.05 492.73 140.11 492.73 148.23 499.77 144.17"/>
        <polygon class="cls-1" points="499.77 160.42 499.77 152.29 492.73 156.35 492.73 164.48 499.77 160.42"/>
        <polygon class="cls-1" points="492.73 148.23 492.73 140.11 485.7 144.17 485.7 152.29 492.73 148.23"/>
        <polygon class="cls-1" points="492.73 164.48 492.73 156.35 485.7 160.42 485.7 168.54 492.73 164.48"/>
        <polygon class="cls-1" points="482.18 154.32 482.18 146.2 485.7 144.17 485.7 152.29 482.18 154.32"/>
        <polygon class="cls-1" points="482.18 170.57 482.18 162.45 485.7 160.42 485.7 168.54 482.18 170.57"/>
        <polygon class="cls-1" points="584.18 95.43 584.18 87.31 577.14 91.37 577.14 99.5 584.18 95.43"/>
        <polygon class="cls-1" points="591.21 91.37 591.21 83.25 584.18 87.31 584.18 95.43 591.21 91.37"/>
        <polygon class="cls-1" points="591.21 99.5 591.21 91.37 584.18 95.43 584.18 103.56 591.21 99.5"/>
        <polygon class="cls-1" points="591.21 107.62 591.21 99.5 584.18 103.56 584.18 111.68 591.21 107.62"/>
        <polygon class="cls-1" points="584.18 111.68 584.18 103.56 577.14 107.62 577.14 115.74 584.18 111.68"/>
        <polygon class="cls-1" points="577.14 115.74 577.14 107.62 570.11 111.68 570.11 119.8 577.14 115.74"/>
        <polygon class="cls-1" points="570.11 119.8 570.11 111.68 563.07 115.74 563.07 123.86 570.11 119.8"/>
        <polygon class="cls-1" points="563.07 123.86 563.07 115.74 556.04 119.8 556.04 127.93 563.07 123.86"/>
        <polygon class="cls-1" points="556.04 127.93 556.04 119.8 549 123.86 549 131.99 556.04 127.93"/>
        <polygon class="cls-1" points="577.14 131.99 577.14 123.86 570.11 127.92 570.11 136.05 577.14 131.99"/>
        <polygon class="cls-1" points="584.18 127.92 584.18 119.8 577.14 123.86 577.14 131.99 584.18 127.92"/>
        <polygon class="cls-1" points="591.21 123.86 591.21 115.74 584.18 119.8 584.18 127.92 591.21 123.86"/>
        <polygon class="cls-1" points="591.21 131.99 591.21 123.86 584.18 127.92 584.18 136.05 591.21 131.99"/>
        <polygon class="cls-1" points="591.21 140.11 591.21 131.99 584.18 136.05 584.18 144.17 591.21 140.11"/>
        <polygon class="cls-1" points="584.18 144.17 584.18 136.05 577.14 140.11 577.14 148.23 584.18 144.17"/>
        <polygon class="cls-1" points="577.14 148.23 577.14 140.11 570.11 144.17 570.11 152.29 577.14 148.23"/>
        <polygon class="cls-1" points="591.21 148.23 591.21 140.11 584.18 144.17 584.18 152.29 591.21 148.23"/>
        <polygon class="cls-1" points="591.21 156.35 591.21 148.23 584.18 152.29 584.17 160.41 591.21 156.35"/>
        <polygon class="cls-1" points="584.17 160.41 584.18 152.29 577.14 156.35 577.14 164.48 584.17 160.41"/>
        <polygon class="cls-1" points="577.14 164.48 577.14 156.35 570.11 160.41 570.11 168.54 577.14 164.48"/>
        <polygon class="cls-1" points="570.11 136.05 570.11 127.92 563.07 131.99 563.07 140.11 570.11 136.05"/>
        <polygon class="cls-1" points="570.11 152.29 570.11 144.17 563.07 148.23 563.07 156.35 570.11 152.29"/>
        <polygon class="cls-1" points="570.11 168.54 570.11 160.41 563.07 164.48 563.07 172.6 570.11 168.54"/>
        <polygon class="cls-1" points="563.07 140.11 563.07 131.99 556.04 136.05 556.04 144.17 563.07 140.11"/>
        <polygon class="cls-1" points="563.07 156.35 563.07 148.23 556.04 152.29 556.04 160.41 563.07 156.35"/>
        <polygon class="cls-1" points="556.04 144.17 556.04 136.05 549 140.11 549 148.23 556.04 144.17"/>
        <polygon class="cls-1" points="556.04 160.41 556.04 152.29 549 156.35 549 164.48 556.04 160.41"/>
        <polygon class="cls-1" points="549 148.23 549 140.11 541.97 144.17 541.97 152.29 549 148.23"/>
        <polygon class="cls-1" points="549 164.48 549 156.35 541.97 160.41 541.97 168.54 549 164.48"/>
        <polygon class="cls-1" points="541.97 152.29 541.97 144.17 534.94 148.23 534.94 156.35 541.97 152.29"/>
        <polygon class="cls-1" points="541.97 168.54 541.97 160.41 534.94 164.48 534.94 172.6 541.97 168.54"/>
        <polygon class="cls-1" points="534.94 156.35 534.94 148.23 527.9 152.29 527.9 160.42 534.94 156.35"/>
        <polygon class="cls-1" points="534.94 172.6 534.94 164.48 527.9 168.54 527.9 176.66 534.94 172.6"/>
        <polygon class="cls-1" points="527.9 160.42 527.9 152.29 520.87 156.35 520.87 164.48 527.9 160.42"/>
        <polygon class="cls-1" points="527.9 176.66 527.9 168.54 520.87 172.6 520.87 180.72 527.9 176.66"/>
        <polygon class="cls-1" points="520.87 164.48 520.87 156.35 513.83 160.42 513.83 168.54 520.87 164.48"/>
        <polygon class="cls-1" points="520.87 180.72 520.87 172.6 513.83 176.66 513.83 184.78 520.87 180.72"/>
        <polygon class="cls-1" points="563.07 172.6 563.07 164.48 556.04 168.54 556.04 176.66 563.07 172.6"/>
        <polygon class="cls-1" points="591.21 156.35 591.21 148.23 584.18 152.29 584.17 160.41 591.21 156.35"/>
        <polygon class="cls-1" points="591.21 164.48 591.21 156.35 584.17 160.41 584.17 168.54 591.21 164.48"/>
        <polygon class="cls-1" points="591.21 172.6 591.21 164.48 584.17 168.54 584.17 176.66 591.21 172.6"/>
        <polygon class="cls-1" points="591.21 180.72 591.21 172.6 584.17 176.66 584.17 184.78 591.21 180.72"/>
        <polygon class="cls-1" points="591.21 188.84 591.21 180.72 584.17 184.78 584.17 192.9 591.21 188.84"/>
        <polygon class="cls-1" points="584.17 192.9 584.17 184.78 577.14 188.84 577.14 196.97 584.17 192.9"/>
        <polygon class="cls-1" points="577.14 196.97 577.14 188.84 570.11 192.9 570.11 201.03 577.14 196.97"/>
        <polygon class="cls-1" points="570.11 201.03 570.11 192.9 563.07 196.97 563.07 205.09 570.11 201.03"/>
        <polygon class="cls-1" points="563.07 205.09 563.07 196.97 556.04 201.03 556.04 209.15 563.07 205.09"/>
        <polygon class="cls-1" points="563.07 196.97 563.07 188.84 556.04 192.9 556.04 201.03 563.07 196.97"/>
        <polygon class="cls-1" points="563.07 188.84 563.07 180.72 556.04 184.78 556.04 192.9 563.07 188.84"/>
        <polygon class="cls-1" points="570.11 184.78 570.11 176.66 563.07 180.72 563.07 188.84 570.11 184.78"/>
        <polygon class="cls-1" points="577.14 180.72 577.14 172.6 570.11 176.66 570.11 184.78 577.14 180.72"/>
        <polygon class="cls-1" points="527.9 209.15 534.94 205.09 534.94 196.97 527.9 201.03 527.9 209.15"/>
        <polygon class="cls-1" points="534.94 205.09 541.97 201.03 541.97 192.9 534.94 196.97 534.94 205.09"/>
        <polygon class="cls-1" points="541.97 201.03 549 196.97 549 188.84 541.97 192.9 541.97 201.03"/>
        <polygon class="cls-1" points="541.97 209.15 549 205.09 549 196.97 541.97 201.03 541.97 209.15"/>
        <polygon class="cls-1" points="541.97 217.27 549 213.21 549 205.09 541.97 209.15 541.97 217.27"/>
        <polygon class="cls-1" points="534.94 221.33 541.97 217.27 541.97 209.15 534.94 213.21 534.94 221.33"/>
        <polygon class="cls-1" points="527.9 225.39 534.94 221.33 534.94 213.21 527.9 217.27 527.9 225.39"/>
        <polygon class="cls-1" points="520.87 229.46 527.9 225.39 527.9 217.27 520.87 221.33 520.87 229.46"/>
        <polygon class="cls-1" points="513.83 233.52 520.87 229.46 520.87 221.33 513.83 225.39 513.83 233.52"/>
        <polygon class="cls-1" points="506.8 237.58 513.83 233.52 513.83 225.39 506.8 229.46 506.8 237.58"/>
        <polygon class="cls-1" points="499.76 241.64 506.8 237.58 506.8 229.46 499.76 233.52 499.76 241.64"/>
        <polygon class="cls-1" points="499.76 233.52 506.8 229.46 506.8 221.33 499.76 225.39 499.76 233.52"/>
        <polygon class="cls-1" points="499.76 225.39 506.8 221.33 506.8 213.21 499.76 217.27 499.76 225.39"/>
        <polygon class="cls-1" points="499.76 217.27 506.8 213.21 506.8 205.09 499.76 209.15 499.76 217.27"/>
        <polygon class="cls-1" points="499.76 209.15 506.8 205.09 506.8 196.97 499.76 201.03 499.76 209.15"/>
        <polygon class="cls-1" points="499.76 201.03 506.8 196.97 506.8 188.84 499.76 192.91 499.76 201.03"/>
        <polygon class="cls-1" points="499.76 192.91 506.8 188.84 506.8 180.72 499.77 184.78 499.76 192.91"/>
        <polygon class="cls-1" points="499.77 184.78 506.8 180.72 506.8 172.6 499.77 176.66 499.77 184.78"/>
        <polygon class="cls-1" points="499.77 176.66 506.8 172.6 506.8 164.48 499.77 168.54 499.77 176.66"/>
        <polygon class="cls-1" points="492.73 180.72 499.77 176.66 499.77 168.54 492.73 172.6 492.73 180.72"/>
        <polygon class="cls-1" points="485.7 184.78 492.73 180.72 492.73 172.6 485.7 176.66 485.7 184.78"/>
        <polygon class="cls-1" points="485.7 192.91 492.73 188.84 492.73 180.72 485.7 184.78 485.7 192.91"/>
        <polygon class="cls-1" points="485.7 249.76 492.73 245.7 492.73 237.58 485.7 241.64 485.7 249.76"/>
        <polygon class="cls-1" points="492.73 245.7 499.76 241.64 499.76 233.52 492.73 237.58 492.73 245.7"/>
        <polygon class="cls-1" points="485.7 201.03 492.73 196.97 492.73 188.84 485.7 192.91 485.7 201.03"/>
        <polygon class="cls-1" points="485.7 209.15 492.73 205.09 492.73 196.97 485.7 201.03 485.7 209.15"/>
        <polygon class="cls-1" points="485.7 217.27 492.73 213.21 492.73 205.09 485.7 209.15 485.7 217.27"/>
        <polygon class="cls-1" points="485.7 225.4 492.73 221.33 492.73 213.21 485.7 217.27 485.7 225.4"/>
        <polygon class="cls-1" points="485.7 233.52 492.73 229.46 492.73 221.33 485.7 225.4 485.7 233.52"/>
        <polygon class="cls-1" points="520.87 213.21 527.9 209.15 527.9 201.03 520.87 205.09 520.87 213.21"/>
        <polygon class="cls-1" points="513.83 217.27 520.87 213.21 520.87 205.09 513.83 209.15 513.83 217.27"/>
        <polygon class="cls-1" points="513.83 209.15 520.87 205.09 520.87 196.97 513.83 201.03 513.83 209.15"/>
        <polygon class="cls-1" points="513.83 201.03 520.87 196.97 520.87 188.84 513.83 192.91 513.83 201.03"/>
        <polygon class="cls-1" points="520.87 196.97 527.9 192.9 527.9 184.78 520.87 188.84 520.87 196.97"/>
        <polygon class="cls-1" points="527.9 192.9 534.94 188.84 534.94 180.72 527.9 184.78 527.9 192.9"/>
        <polygon class="cls-1" points="534.94 188.84 541.97 184.78 541.97 176.66 534.94 180.72 534.94 188.84"/>
        <polygon class="cls-1" points="541.97 184.78 549 180.72 549 172.6 541.97 176.66 541.97 184.78"/>
      </g>
      <g>
        <path class="cls-1" d="M149.54,100.78v27.11c0,6.31-2.3,11.7-6.92,16.18-4.47,4.3-9.73,6.45-15.76,6.45h-1.09c-5.62-.07-10.64-2.09-15.04-6.04-4.61,4.02-9.67,6.04-15.14,6.04h-1.15c-5.55,0-10.55-2-14.98-5.99-4.65,3.99-9.65,5.99-14.99,5.99H0v-10.78c0-2.79,2.26-5.04,5.04-5.04h58.75c3.43,0,5.84-1.47,7.23-4.42.52-1.22.78-2.52.78-3.91v-20.34c0-3.5,1.98-5.25,5.93-5.25h9.16v25.49c0,3.32,1.32,5.77,3.95,7.34,1.29.73,2.69,1.08,4.22,1.08,3.19,0,5.53-1.36,7.03-4.1.69-1.32,1.04-2.76,1.04-4.32v-20.24c.1-3.43,1.82-5.19,5.15-5.25h9.94v25.49c0,3.32,1.32,5.77,3.95,7.34,1.28.73,2.69,1.08,4.21,1.08,3.19,0,5.54-1.36,7.03-4.1.7-1.32,1.02-2.76.99-4.32v-20.65c.1-3.2,1.85-4.81,5.25-4.84h9.88Z"/>
        <path class="cls-1" d="M174.62,74.4h-7.54c-5.1,0-7.64,2.22-7.64,6.66l.73,48.23h7.8c4.51-.11,6.82-2.31,6.92-6.61l-.26-48.28Z"/>
        <path class="cls-1" d="M213.65,174.35h-7.58v7.64c0,3.54,2.87,6.41,6.4,6.41h7.65v-7.59c0-3.57-2.89-6.46-6.47-6.46ZM221.08,156.64h-22.81v7.72c0,3.52,2.85,6.38,6.37,6.38h22.77v-7.78c0-3.49-2.83-6.33-6.33-6.33Z"/>
        <path class="cls-1" d="M238.25,100.78v27.16c0,6.14-2.26,11.44-6.77,15.91-4.44,4.44-9.66,6.67-15.66,6.67h-7.8c-5.3-.07-10.27-2.03-14.88-5.88-4.61,3.92-9.57,5.88-14.87,5.88h-21.6l.1-8.64c.11-4.72,2.38-7.11,6.82-7.19h14c3.43,0,5.84-1.47,7.23-4.42.52-1.22.78-2.52.78-3.91v-45.62c.11-4.19,2.67-6.31,7.71-6.34h7.38v51.97c0,3.33,1.31,5.76,3.91,7.29,1.28.7,2.65,1.04,4.11,1.04h6.4c3.43,0,5.84-1.47,7.23-4.42.52-1.22.8-2.52.83-3.91v-20.75c.11-3.2,2.08-4.81,5.93-4.84h9.16Z"/>
        <path class="cls-1" d="M352.05,84.12c0,1.11-1.19,2.35-3.59,3.7l-24.25,12.96,8.59,12.69c6.24,10.03,9.4,17.11,9.46,21.23,0,7.36-3.01,12.12-9.05,14.31-2.88,1.01-6.47,1.51-10.77,1.51h-22.73c-5.04-.11-9.6-1.87-13.69-5.31-3.6,3.54-8.92,5.31-15.92,5.31h-13.73c-6.21-.42-9.37-3.3-9.47-8.64v-7.19h22.27c4.3,0,6.92-1.26,7.86-3.79.41-1.91.64-3.91.67-5.99-.1-3.75-.9-6.23-2.39-7.45-1.69-1.07-3.75-1.61-6.14-1.61h-10.51c-6.14-.41-9.27-3.29-9.36-8.63v-6.45h21.08c7.53.28,13.41,3.24,17.63,8.89,3.23,4.41,4.84,9.63,4.84,15.66v2.29c.41,3.19,2.06,5.36,4.95,6.51,1,.38,2.06.56,3.17.56h26.85l-21.8-33.04c-1.11-1.84-1.67-3.49-1.67-4.94,0-1.85.73-3.21,2.19-4.11.42-.31.99-.66,1.72-1.04l36.42-18.74,5.63,7.54c1.17,1.53,1.77,2.78,1.77,3.75Z"/>
      </g>
      <g>
        <path class="cls-1" d="M11.71,188.07c-3.74-.12-6.61-1.33-8.62-3.65-2.02-2.32-3.02-5.33-3.02-9.03.02-3.92,1.18-7.08,3.47-9.5.61-.63,1.27-1.18,1.97-1.65,1.76-1.16,3.9-1.73,6.4-1.73,1.92,0,3.85.41,5.78,1.24.19.06.43.17.72.33l-1.45,3.37-.9-.27c-1.48-.49-2.91-.74-4.3-.74-2.74.15-4.69,1.48-5.84,4-.66,1.43-.99,3.07-.99,4.93.03,2.83.76,5.09,2.19,6.77.19.21.38.4.58.58.95.88,2.21,1.35,3.78,1.4,1.89,0,3.69-.37,5.39-1.12l1.75,3.46c-2.08,1.06-4.38,1.59-6.9,1.59Z"/>
        <path class="cls-1" d="M36.2,187.85c-1.26.22-2.56.25-3.83.07-3-.42-5.41-1.67-7.22-3.77-1.95-2.28-2.93-5.2-2.93-8.76.03-4.04,1.23-7.23,3.61-9.58,1.85-1.82,4.23-2.91,7.14-3.29h0c1.05-.08,2.11-.09,3.15.05,3.03.42,5.46,1.69,7.28,3.82,1.94,2.28,2.91,5.19,2.91,8.73-.05,4.32-1.39,7.63-4.02,9.94-1.66,1.44-3.69,2.37-6.09,2.79ZM34.2,184.13c3.03-.08,5.15-1.48,6.33-4.19.6-1.38.9-2.98.9-4.82-.03-2.86-.8-5.08-2.32-6.68-1.25-1.3-2.85-1.98-4.79-2.05-2.47.08-4.37,1.2-5.72,3.34-1.01,1.62-1.52,3.5-1.53,5.64.03,3.1.88,5.43,2.55,6.99,1.2,1.11,2.72,1.7,4.57,1.76Z"/>
        <path class="cls-1" d="M61.52,187.57h-9.31v-24.56h9.31c4.83.06,8.14,1.86,9.92,5.4.93,1.85,1.4,4.08,1.39,6.71-.03,5.65-1.96,9.4-5.8,11.25-1.55.74-3.39,1.13-5.51,1.2ZM56.89,167v16.65h4.57c4.33-.13,6.51-2.97,6.54-8.52-.12-5.39-2.21-8.1-6.27-8.13h-4.84Z"/>
        <path class="cls-1" d="M94.41,183.91l.74,3.65h-17.2v-24.56h16.46l.72,3.67h-12.51v6.62h8l.77,3.73h-8.77v6.88h11.78Z"/>
        <path class="cls-1" d="M113.72,179h-2.71v8.57h-4.68v-24.56h7.7c3.86.02,6.66,1.1,8.38,3.24.9,1.19,1.35,2.74,1.34,4.65-.08,3.07-1.42,5.31-4.02,6.73-1.7.91-3.71,1.37-6.02,1.37ZM111.01,166.93v8.19h2.96c2.62-.09,4.19-1.13,4.71-3.12h0c.13-.8.13-1.62-.11-2.39-.44-1.38-1.43-2.23-2.98-2.54-.51-.09-1.08-.14-1.7-.14h-2.88Z"/>
        <path class="cls-1" d="M144.01,183.91l.72,3.65h-16.24v-24.56h4.68v20.9h10.84Z"/>
        <path class="cls-1" d="M158.27,187.98c-3.13-.03-5.61-.98-7.43-2.83-1.44-1.48-2.28-3.35-2.52-5.61l-.03-.17c0-.28,0-.46-.02-.52v-.05l-.03-15.78h4.71v15.26c.02,2.76.99,4.56,2.9,5.4.73.3,1.57.46,2.5.46,2.28-.09,3.85-.96,4.71-2.6.45-1.01.68-2.1.68-3.26v-15.26h4.71v15.62c-.03,1.91-.5,3.6-1.4,5.06-2.05,2.86-4.97,4.28-8.77,4.28Z"/>
        <path class="cls-1" d="M179.44,188.06c-1.7,0-3.62-.45-5.75-1.35-.58-.24-1.08-.49-1.51-.74l1.06-3.81c1.83.93,3.56,1.5,5.21,1.68l.91.05c2.87-.12,4.34-1,4.43-2.66-.08-.66-.38-1.22-.88-1.69-.61-.46-1.52-1.03-2.74-1.72-2.04-1.24-3.68-2.29-4.93-3.17-2.28-1.76-3.43-3.65-3.47-5.65.08-2.56,1.29-4.42,3.62-5.56,1.4-.67,3-1.01,4.82-1.01,2.09.03,4.4.65,6.93,1.86l-1.58,3.75c-2.01-1.01-3.77-1.51-5.29-1.51-1.52.03-2.59.4-3.21,1.1-.3.45-.46.91-.46,1.37.03.69.29,1.28.79,1.75.72.58,1.62,1.17,2.68,1.78l2.21,1.28c1.28.76,2.4,1.47,3.37,2.14,1.95,1.44,2.95,3.22,2.98,5.34-.08,2.73-1.45,4.67-4.11,5.83-1.47.63-3.16.95-5.07.95Z"/>
      </g>
    </g>
  </g>
</svg>