<svg width="16" height="16" viewBox="0 0 16 16" fill="none" xmlns="http://www.w3.org/2000/svg">
<path d="M13.7939 14.2594L13.7939 14.2593C13.8524 14.0431 13.9792 13.2615 14.1429 12.125C14.3036 11.0087 14.4942 9.59264 14.6814 8.14483C15.0565 5.24328 15.415 2.23627 15.4931 1.25652L13.7939 14.2594ZM13.7939 14.2594C13.6759 14.6965 13.5672 15.0509 13.4442 15.2928C13.373 15.4329 13.3243 15.4836 13.304 15.4998C12.9842 15.4936 12.5918 15.3554 12.1658 14.9884C11.6527 14.5465 8.29073 11.8278 7.81468 11.4663M13.7939 14.2594L7.81468 11.4663M7.28036 10.0301C6.6714 10.7783 7.10369 11.5538 7.51204 11.8643C7.97863 12.2185 11.3341 14.9319 11.8395 15.3673C12.3449 15.8026 12.8574 16 13.3266 16C13.7958 16 14.043 15.2549 14.2766 14.3897L7.28036 10.0301ZM7.28036 10.0301C7.59216 9.64697 9.18037 7.78172 10.4154 6.33118L10.4157 6.33091C11.1671 5.44839 11.7878 4.71945 11.9107 4.5713L7.28036 10.0301ZM7.81468 11.4663C7.68919 11.3709 7.55111 11.1918 7.49927 10.9881C7.45377 10.8093 7.46741 10.5924 7.66815 10.3458L7.66818 10.3457C7.97536 9.96824 9.5577 8.10981 10.7964 6.65506L10.8077 6.64171C11.552 5.76766 12.1705 5.04118 12.2955 4.89052L12.2958 4.89015C12.5676 4.56188 12.6424 4.08899 12.3956 3.73829C12.2651 3.55294 12.0471 3.42084 11.7834 3.42711C11.5347 3.43302 11.3259 3.55923 11.1701 3.71277L11.521 4.0688L11.1704 3.71249C11.0913 3.79029 10.695 4.12359 10.0999 4.61334C9.51832 5.09199 8.77442 5.69785 8.0273 6.30323C6.52715 7.51879 5.03196 8.71788 4.80168 8.89036L4.80164 8.89039C4.46639 9.14155 3.8273 9.30383 3.2882 9.12432L3.28793 9.12423C2.5563 8.88108 1.32324 8.42982 0.846466 8.22496C0.630272 8.13179 0.552154 8.06762 0.524238 8.03531C0.514342 8.02386 0.511227 8.01696 0.508887 8.00993C0.50579 8.00062 0.5 7.97767 0.5 7.93071C0.5 7.89648 0.515704 7.81225 0.691345 7.66415C0.865915 7.51696 1.1191 7.37424 1.42889 7.21569L1.42928 7.21549C2.09576 6.87366 13.3389 1.119 14.2009 0.7444L14.2009 0.744395C14.5007 0.614079 14.7519 0.536482 14.9528 0.510069C15.1536 0.48367 15.2626 0.513426 15.3214 0.547523L15.3221 0.54795C15.383 0.583115 15.5349 0.730439 15.4931 1.25641L7.81468 11.4663ZM13.2934 15.5065C13.2933 15.5063 13.2948 15.5054 13.2979 15.5043C13.2949 15.5062 13.2934 15.5068 13.2934 15.5065Z" stroke="#636161"/>
</svg>
